<svg width="77" height="39" viewBox="0 0 77 39" fill="none" xmlns="http://www.w3.org/2000/svg">
<path d="M67.9177 5.88001L77 0L53.8949 0C48.6613 0 43.7421 2.02905 40.0378 5.71092C39.4855 6.26046 38.9758 6.83536 38.5 7.43139C38.0242 6.83113 37.5102 6.26046 36.9622 5.71092C33.2622 2.02905 28.3387 0 23.1051 0L0 0L0 0.0464993L8.76796 6.20973L11.852 8.37828L15.756 11.1217C17.7186 9.41394 20.2929 8.37828 23.1051 8.37828C29.2775 8.37828 34.2817 13.3579 34.2817 19.5C34.2817 25.6421 29.2775 30.6217 23.1051 30.6217C16.9327 30.6217 11.9285 25.6421 11.9285 19.5C11.9285 19.1069 11.9497 18.718 11.988 18.3333L3.86997 15.7463C3.63208 16.9679 3.50888 18.2276 3.50888 19.5C3.50888 24.7079 5.54794 29.6072 9.24799 33.2891C12.948 36.9709 17.8715 39 23.1009 39C28.3344 39 33.2579 36.9709 36.958 33.2891C37.5102 32.7395 38.02 32.1646 38.4958 31.5686C38.9715 32.1646 39.4855 32.7395 40.0335 33.2891C43.7336 36.9709 48.6571 39 53.8907 39C59.1242 39 64.0435 36.9709 67.7478 33.2891C71.4478 29.6072 73.4869 24.7079 73.4869 19.5C73.4869 14.3724 71.5073 9.54498 67.9177 5.88001ZM53.8907 30.6217C47.7183 30.6217 42.7141 25.6421 42.7141 19.5C42.7141 13.3579 47.7183 8.37828 53.8907 8.37828C60.0631 8.37828 65.0673 13.3579 65.0673 19.5C65.0673 25.6421 60.0631 30.6217 53.8907 30.6217Z" fill="#039EB4"/>
</svg>
