<svg width="24" height="24" viewBox="0 0 24 24" fill="none" xmlns="http://www.w3.org/2000/svg">
<path d="M16.9999 7C15.3712 6.99986 13.7812 7.49666 12.4423 8.42404C11.1034 9.35142 10.0794 10.6652 9.50687 12.19L11.3809 12.893C11.8759 11.5784 12.8163 10.4791 14.0383 9.78642C15.2604 9.09376 16.6867 8.85168 18.0688 9.10232C19.451 9.35297 20.7014 10.0805 21.6025 11.1581C22.5035 12.2358 22.998 13.5953 22.9999 15C22.9999 16.5913 22.3677 18.1174 21.2425 19.2426C20.1173 20.3679 18.5912 21 16.9999 21H6.99987C5.5831 21.0009 4.21172 20.5004 3.12856 19.5872C2.0454 18.6739 1.32035 17.4069 1.08178 16.0103C0.843215 14.6138 1.10653 13.1779 1.82511 11.9569C2.54368 10.7358 3.67115 9.80848 5.00787 9.339C4.92222 7.61162 5.47908 5.91368 6.57109 4.57252C7.66311 3.23136 9.21296 2.34195 10.9219 2.07574C12.6307 1.80954 14.3777 2.1854 15.8259 3.13085C17.2741 4.0763 18.3211 5.52441 18.7649 7.196C18.1856 7.06559 17.5936 6.99985 16.9999 7V7Z" fill="#039EB4"/>
</svg>
