<svg width="24" height="24" viewBox="0 0 24 24" fill="none" xmlns="http://www.w3.org/2000/svg">
<path d="M19.2279 18.732L20.9959 16.964L22.7629 18.732C23.1126 19.0816 23.3508 19.527 23.4473 20.012C23.5439 20.497 23.4944 20.9997 23.3052 21.4565C23.116 21.9134 22.7956 22.3039 22.3844 22.5786C21.9733 22.8533 21.4899 23 20.9954 23C20.501 23 20.0176 22.8533 19.6064 22.5786C19.1953 22.3039 18.8749 21.9134 18.6857 21.4565C18.4965 20.9997 18.447 20.497 18.5435 20.012C18.6401 19.527 18.8782 19.0816 19.2279 18.732ZM8.87794 1.07996L20.1919 12.393C20.2849 12.4858 20.3587 12.5961 20.409 12.7175C20.4593 12.8389 20.4852 12.969 20.4852 13.1005C20.4852 13.2319 20.4593 13.362 20.409 13.4834C20.3587 13.6048 20.2849 13.7151 20.1919 13.808L11.7069 22.293C11.5194 22.4804 11.2651 22.5857 10.9999 22.5857C10.7348 22.5857 10.4805 22.4804 10.2929 22.293L1.80794 13.808C1.71496 13.7151 1.6412 13.6048 1.59088 13.4834C1.54055 13.362 1.51465 13.2319 1.51465 13.1005C1.51465 12.969 1.54055 12.8389 1.59088 12.7175C1.6412 12.5961 1.71496 12.4858 1.80794 12.393L9.58594 4.61496L7.46394 2.49396L8.87994 1.07996H8.87794ZM10.9999 6.02996L3.92894 13.1H18.0699L10.9999 6.02996Z" fill="#039EB4"/>
</svg>
