<svg width="24" height="24" viewBox="0 0 24 24" fill="none" xmlns="http://www.w3.org/2000/svg">
<path d="M12.0001 12C10.674 12 9.40225 11.4732 8.46456 10.5355C7.52688 9.59785 7.0001 8.32608 7.0001 7C7.0001 5.67392 7.52688 4.40215 8.46456 3.46447C9.40225 2.52678 10.674 2 12.0001 2C13.3262 2 14.5979 2.52678 15.5356 3.46447C16.4733 4.40215 17.0001 5.67392 17.0001 7C17.0001 8.32608 16.4733 9.59785 15.5356 10.5355C14.5979 11.4732 13.3262 12 12.0001 12V12ZM18.0001 17V22H16.0001V17C16.0001 12.549 18.6441 8.715 22.4471 6.984L23.2751 8.804C21.7018 9.51958 20.3678 10.6729 19.4324 12.1263C18.497 13.5797 17.9998 15.2716 18.0001 17V17ZM8.0001 17V22H6.0001V17C6.00024 15.2718 5.50292 13.5801 4.56753 12.1269C3.63214 10.6737 2.29823 9.52051 0.725098 8.805L1.5531 6.984C3.47578 7.85849 5.1061 9.26796 6.24932 11.0441C7.39254 12.8201 8.00033 14.8878 8.0001 17Z" fill="#039EB4"/>
</svg>
