<svg width="24" height="24" viewBox="0 0 24 24" fill="none" xmlns="http://www.w3.org/2000/svg">
<path d="M5.33021 15.929C5.11007 14.9682 4.99937 13.9856 5.00021 13C5.00021 7.91199 7.90321 3.56399 12.0002 1.81799C16.0972 3.56399 19.0002 7.91199 19.0002 13C19.0002 14.01 18.8862 14.991 18.6702 15.929L20.6902 17.725C20.7772 17.8023 20.8344 17.9075 20.8521 18.0225C20.8698 18.1375 20.8469 18.2551 20.7872 18.355L18.3292 22.451C18.2901 22.5161 18.2366 22.5714 18.173 22.6127C18.1093 22.6541 18.037 22.6804 17.9616 22.6896C17.8862 22.6989 17.8098 22.6909 17.738 22.6661C17.6661 22.6414 17.6009 22.6007 17.5472 22.547L15.2932 20.293C15.1057 20.1054 14.8514 20 14.5862 20H9.41421C9.14902 20 8.8947 20.1054 8.70721 20.293L6.45321 22.547C6.3995 22.6007 6.33427 22.6414 6.26247 22.6661C6.19067 22.6909 6.11418 22.6989 6.03881 22.6896C5.96344 22.6804 5.89116 22.6541 5.82747 22.6127C5.76378 22.5714 5.71034 22.5161 5.67121 22.451L3.21321 18.356C3.15329 18.256 3.13018 18.1382 3.1479 18.023C3.16561 17.9078 3.22302 17.8024 3.31021 17.725L5.33021 15.929V15.929ZM12.0002 13C12.5306 13 13.0394 12.7893 13.4144 12.4142C13.7895 12.0391 14.0002 11.5304 14.0002 11C14.0002 10.4696 13.7895 9.96085 13.4144 9.58578C13.0394 9.21071 12.5306 8.99999 12.0002 8.99999C11.4698 8.99999 10.9611 9.21071 10.586 9.58578C10.2109 9.96085 10.0002 10.4696 10.0002 11C10.0002 11.5304 10.2109 12.0391 10.586 12.4142C10.9611 12.7893 11.4698 13 12.0002 13Z" fill="#039EB4"/>
</svg>
