<svg width="24" height="24" viewBox="0 0 24 24" fill="none" xmlns="http://www.w3.org/2000/svg">
<path d="M14.3679 4.39795L10.8839 10.4329L12.6159 11.4329L16.0999 5.39795C20.2699 8.16995 22.4059 12.4779 20.6599 15.4999C18.7999 18.7219 13.4709 18.8549 8.7499 16.1299C4.0289 13.4019 1.4799 8.72095 3.3399 5.49995C5.0849 2.47695 9.8829 2.17295 14.3679 4.39795ZM15.8839 1.77295L17.6159 2.77295L16.1159 5.37095L14.3839 4.37095L15.8839 1.77295ZM6.7319 19.9999H16.9999V21.9999H5.0169C4.8384 22.0035 4.66223 21.9589 4.50687 21.871C4.35151 21.783 4.22269 21.6548 4.1339 21.4999C4.04662 21.3478 4.0007 21.1754 4.0007 20.9999C4.0007 20.8245 4.04662 20.6521 4.1339 20.4999L6.3839 16.603L8.1159 17.603L6.7319 19.9999Z" fill="#039EB4"/>
</svg>
